<?xml version="1.0" encoding="UTF-8" standalone="no"?> <svg width="512" height="512" viewBox="0 0 512 512" fill="none" xmlns="http://www.w3.org/2000/svg">
<path d="M239.759 166.06L232 135.023V122C231.994 117.228 230.096 112.653 226.722 109.278C223.347 105.904 218.772 104.006 214 104H58C53.2278 104.006 48.6527 105.904 45.2782 109.278C41.9038 112.653 40.0056 117.228 40 122V135.01L32.238 166.06L32.245 166.066C32.0849 166.698 32.0026 167.348 32 168V440C32.0026 440.652 32.0849 441.301 32.245 441.933L32.239 441.94L40.239 473.94C40.6717 475.671 41.6705 477.207 43.0767 478.305C44.4829 479.404 46.2159 480 48 480H224C225.784 480 227.517 479.404 228.923 478.305C230.33 477.207 231.328 475.671 231.761 473.94L239.761 441.94L239.755 441.934C239.915 441.302 239.997 440.652 240 440V168C239.997 167.349 239.915 166.7 239.756 166.069L239.759 166.06ZM54.244 144H217.752L221.752 160H50.244L54.244 144ZM136 232C119.032 232.019 102.764 238.768 90.7662 250.766C78.768 262.764 72.0191 279.032 72 296H48V176H224V296H200C199.981 279.032 193.232 262.764 181.234 250.766C169.236 238.768 152.968 232.019 136 232V232ZM184 296C184 305.494 181.185 314.774 175.911 322.667C170.636 330.561 163.14 336.713 154.369 340.346C145.598 343.979 135.947 344.93 126.636 343.078C117.325 341.226 108.772 336.654 102.059 329.941C95.346 323.228 90.7744 314.675 88.9223 305.364C87.0702 296.053 88.0208 286.402 91.6538 277.631C95.2868 268.86 101.439 261.364 109.333 256.089C117.226 250.815 126.506 248 136 248C148.726 248.014 160.927 253.076 169.925 262.075C178.924 271.073 183.986 283.274 184 296ZM48 312H74.025C77.5736 325.739 85.5867 337.909 96.8049 346.597C108.023 355.286 121.81 360.001 136 360.001C150.19 360.001 163.977 355.286 175.195 346.597C186.413 337.909 194.426 325.739 197.975 312H224V432H48V312ZM58 120H214C214.53 120 215.039 120.211 215.414 120.586C215.789 120.961 216 121.47 216 122V128H56V122C56 121.47 56.2107 120.961 56.5858 120.586C56.9609 120.211 57.4696 120 58 120ZM54.246 464L50.246 448H221.754L217.754 464H54.246Z" fill="black"/>
<path d="M448 104C447.998 103.373 447.922 102.748 447.773 102.138C447.767 102.11 447.768 102.088 447.761 102.06L440 71.017V58C440 47.4 433.421 40 424 40H298C293.228 40.0056 288.653 41.9038 285.278 45.2782C281.904 48.6527 280.006 53.2278 280 58V71.017L272.239 102.06C272.232 102.09 272.233 102.111 272.226 102.14C272.078 102.749 272.002 103.373 272 104V440C272.002 440.633 272.08 441.263 272.231 441.878C272.231 441.901 272.231 441.918 272.239 441.94L280.239 473.94C280.672 475.671 281.67 477.207 283.077 478.305C284.483 479.404 286.216 480 288 480H432C433.784 480 435.517 479.404 436.923 478.305C438.33 477.207 439.328 475.671 439.761 473.94L447.761 441.94C447.771 441.897 447.776 441.86 447.785 441.818C447.926 441.222 447.998 440.612 448 440V104ZM288 112H432V161.754L288 197.754V112ZM288 214.246L432 178.246V249.754L288 285.754V214.246ZM294.246 80H425.754L429.754 96H290.246L294.246 80ZM288 302.246L432 266.246V432H288V302.246ZM296 58C296 57.4696 296.211 56.9609 296.586 56.5858C296.961 56.2107 297.47 56 298 56H423.75C423.932 56.6506 424.016 57.3246 424 58V64H296V58ZM294.246 464L290.246 448H429.754L425.754 464H294.246Z" fill="black"/>
<path d="M408 328C405.878 328 403.843 328.843 402.343 330.343C400.843 331.843 400 333.878 400 336V360C400 362.122 400.843 364.157 402.343 365.657C403.843 367.157 405.878 368 408 368C410.122 368 412.157 367.157 413.657 365.657C415.157 364.157 416 362.122 416 360V336C416 333.878 415.157 331.843 413.657 330.343C412.157 328.843 410.122 328 408 328Z" fill="black"/>
<path d="M408 376C405.878 376 403.843 376.843 402.343 378.343C400.843 379.843 400 381.878 400 384V392C400 394.122 400.843 396.157 402.343 397.657C403.843 399.157 405.878 400 408 400C410.122 400 412.157 399.157 413.657 397.657C415.157 396.157 416 394.122 416 392V384C416 381.878 415.157 379.843 413.657 378.343C412.157 376.843 410.122 376 408 376Z" fill="black"/>
<path d="M200 344C197.878 344 195.843 344.843 194.343 346.343C192.843 347.843 192 349.878 192 352V376C192 378.122 192.843 380.157 194.343 381.657C195.843 383.157 197.878 384 200 384C202.122 384 204.157 383.157 205.657 381.657C207.157 380.157 208 378.122 208 376V352C208 349.878 207.157 347.843 205.657 346.343C204.157 344.843 202.122 344 200 344Z" fill="black"/>
<path d="M200 392C197.878 392 195.843 392.843 194.343 394.343C192.843 395.843 192 397.878 192 400V408C192 410.122 192.843 412.157 194.343 413.657C195.843 415.157 197.878 416 200 416C202.122 416 204.157 415.157 205.657 413.657C207.157 412.157 208 410.122 208 408V400C208 397.878 207.157 395.843 205.657 394.343C204.157 392.843 202.122 392 200 392Z" fill="black"/>
</svg>
