<?xml version="1.0" encoding="utf-8"?>
<!-- Generator: Adobe Illustrator 17.0.0, SVG Export Plug-In . SVG Version: 6.00 Build 0)  -->
<!DOCTYPE svg PUBLIC "-//W3C//DTD SVG 1.1//EN" "http://www.w3.org/Graphics/SVG/1.1/DTD/svg11.dtd">
<svg version="1.1" id="icon" xmlns="http://www.w3.org/2000/svg" xmlns:xlink="http://www.w3.org/1999/xlink" x="0px" y="0px"
	 width="128px" height="128px" viewBox="0 0 128 128" enable-background="new 0 0 128 128" xml:space="preserve">
<g>
	<path d="M118.408,38.842l-26-11.818c-0.788-0.358-1.694-0.358-2.482,0l-8.56,3.891c0.33,0.879,0.339,1.876-0.177,2.819
		c-0.715,1.307-1.634,2.467-2.694,3.488c-0.124,0.21-0.255,0.417-0.386,0.622c-0.241,0.485-0.477,0.972-0.705,1.462l13.764-6.256
		l23,10.454v63.137l-21.759-9.89c-0.788-0.358-1.694-0.358-2.482,0l-24.759,11.254L40.408,96.752
		c-0.394-0.179-0.818-0.269-1.241-0.269c-0.423,0-0.847,0.09-1.241,0.269l-21.759,9.89V43.505l23-10.454l12.715,5.779
		c-0.78-1.028-1.577-2.114-2.523-3.221c-1.286-1.506-1.043-3.313-0.12-4.571l-8.831-4.014c-0.788-0.358-1.694-0.358-2.482,0
		l-26,11.818c-1.071,0.487-1.759,1.555-1.759,2.731v69.727c0,1.02,0.518,1.97,1.376,2.523c0.858,0.552,1.938,0.631,2.865,0.208
		l24.759-11.254l24.759,11.254c0.788,0.358,1.694,0.358,2.482,0l24.759-11.254l24.759,11.254c0.396,0.18,0.819,0.269,1.241,0.269
		c0.567,0,1.132-0.161,1.624-0.477c0.858-0.552,1.376-1.503,1.376-2.523V41.573C120.167,40.397,119.479,39.329,118.408,38.842z"/>
	<path d="M13.169,92.298c-0.055,0-0.11-0.003-0.166-0.007c-1.099-0.091-1.917-1.051-1.83-2.15c0.006-0.072,0.149-1.794,0.87-4.305
		c0.305-1.062,1.415-1.674,2.474-1.371c1.062,0.305,1.675,1.413,1.371,2.474c-0.601,2.095-0.727,3.511-0.728,3.525
		C15.071,91.508,14.197,92.298,13.169,92.298z"/>
	<path d="M85.167,91.301c-2.78,0-5.203-0.351-7.408-1.07c-1.05-0.343-1.623-1.472-1.281-2.522c0.343-1.05,1.476-1.622,2.522-1.281
		c1.798,0.587,3.815,0.872,6.167,0.873c0.19,0,0.378-0.004,0.563-0.014c1.102-0.06,2.042,0.795,2.096,1.899
		c0.055,1.103-0.795,2.042-1.899,2.096C85.678,91.295,85.424,91.301,85.167,91.301z M92.761,88.627
		c-0.585,0-1.166-0.255-1.561-0.747c-0.692-0.861-0.555-2.12,0.306-2.812c1.493-1.2,2.879-2.881,4.36-5.29
		c0.578-0.94,1.809-1.235,2.751-0.656c0.941,0.579,1.234,1.811,0.656,2.751c-1.729,2.811-3.4,4.817-5.262,6.313
		C93.643,88.482,93.201,88.627,92.761,88.627z M72.031,86.388c-0.513,0-1.025-0.196-1.416-0.588
		c-1.883-1.888-3.354-4.084-4.821-6.355c-0.599-0.928-0.332-2.166,0.596-2.765c0.927-0.6,2.166-0.332,2.765,0.596
		c1.396,2.164,2.683,4.086,4.292,5.7c0.78,0.782,0.778,2.048-0.004,2.828C73.053,86.194,72.542,86.388,72.031,86.388z
		 M16.966,81.457c-0.35,0-0.704-0.092-1.026-0.285c-0.948-0.568-1.255-1.796-0.688-2.744c1.408-2.35,3.119-4.474,5.084-6.313
		c0.807-0.754,2.072-0.711,2.827,0.094c0.754,0.807,0.712,2.072-0.094,2.827c-1.694,1.585-3.17,3.418-4.386,5.448
		C18.309,81.11,17.646,81.457,16.966,81.457z M101.194,76.169c-0.311,0-0.626-0.073-0.921-0.226c-0.98-0.51-1.362-1.717-0.853-2.697
		c1.19-2.289,2.476-4.699,3.957-6.782c0.641-0.901,1.889-1.11,2.789-0.471c0.9,0.641,1.111,1.889,0.471,2.789
		c-1.333,1.874-2.542,4.144-3.667,6.308C102.613,75.776,101.916,76.169,101.194,76.169z M63.099,74.186
		c-0.559,0-1.115-0.233-1.511-0.688c-1.62-1.864-3.294-3.188-5.269-4.168c-0.99-0.491-1.394-1.691-0.903-2.68
		c0.491-0.991,1.69-1.394,2.68-0.903c2.431,1.206,4.561,2.883,6.511,5.128c0.725,0.834,0.636,2.097-0.198,2.821
		C64.031,74.025,63.564,74.186,63.099,74.186z M27.881,71.235c-0.723,0-1.421-0.394-1.777-1.081
		c-0.508-0.98-0.125-2.188,0.856-2.696c2.289-1.186,4.815-2.131,7.508-2.81c1.072-0.266,2.158,0.38,2.428,1.451
		c0.27,1.071-0.38,2.158-1.451,2.428c-2.394,0.603-4.629,1.438-6.645,2.482C28.505,71.163,28.191,71.235,27.881,71.235z
		 M49.98,67.508c-0.076,0-0.153-0.004-0.23-0.013c-1.122-0.128-2.327-0.194-3.583-0.194c-1.232-0.01-2.434,0.041-3.599,0.123
		c-1.111,0.078-2.058-0.754-2.135-1.855c-0.077-1.102,0.753-2.058,1.855-2.135c1.258-0.088,2.556-0.152,3.88-0.132
		c1.407,0,2.766,0.074,4.038,0.22c1.097,0.126,1.885,1.118,1.759,2.215C51.848,66.756,50.983,67.508,49.98,67.508z"/>
	<path d="M110.769,64.563c-0.782,0-1.524-0.461-1.845-1.227c-0.427-1.019,0.052-2.19,1.071-2.618
		c1.451-0.609,3.023-0.917,4.672-0.917c1.104,0,2,0.896,2,2s-0.896,2-2,2c-1.13,0-2.153,0.198-3.125,0.606
		C111.289,64.513,111.027,64.563,110.769,64.563z"/>
	<path d="M39.167,101.482c-1.104,0-2-0.896-2-2V31.301c0-1.104,0.896-2,2-2s2,0.896,2,2v68.182
		C41.167,100.587,40.271,101.482,39.167,101.482z"/>
	<path d="M65.167,112.301c-1.105,0-2-0.896-2-2v-55c0-1.104,0.895-2,2-2c1.104,0,2,0.896,2,2v55
		C67.167,111.405,66.271,112.301,65.167,112.301z"/>
	<path d="M91.167,101.482c-1.105,0-2-0.896-2-2V31.301c0-1.104,0.895-2,2-2c1.104,0,2,0.896,2,2v68.182
		C93.167,100.587,92.271,101.482,91.167,101.482z"/>
	<path d="M65.667,59.578c-0.902,0-1.757-0.406-2.326-1.106c-1.994-2.448-19.476-24.241-19.476-35.37
		c0-12.022,9.78-21.802,21.802-21.802c12.021,0,21.802,9.78,21.802,21.802c0,11.129-17.482,32.921-19.476,35.37
		C67.424,59.172,66.569,59.578,65.667,59.578z M65.667,7.301c-8.713,0-15.802,7.089-15.802,15.802
		c0,6.074,8.906,19.677,15.801,28.638c6.896-8.964,15.802-22.569,15.802-28.638C81.468,14.39,74.38,7.301,65.667,7.301z"/>
	<path d="M65.667,31.981c-4.896,0-8.879-3.983-8.879-8.878c0-4.896,3.983-8.879,8.879-8.879c4.896,0,8.879,3.983,8.879,8.879
		C74.546,27.998,70.563,31.981,65.667,31.981z M65.667,18.224c-2.69,0-4.879,2.188-4.879,4.879c0,2.69,2.188,4.878,4.879,4.878
		c2.69,0,4.879-2.189,4.879-4.878C70.546,20.412,68.357,18.224,65.667,18.224z"/>
</g>
</svg>
