<?xml version="1.0" standalone="no"?>
<!DOCTYPE svg PUBLIC "-//W3C//DTD SVG 20010904//EN"
 "http://www.w3.org/TR/2001/REC-SVG-20010904/DTD/svg10.dtd">
<svg version="1.0" xmlns="http://www.w3.org/2000/svg"
 width="370.000000pt" height="255.000000pt" viewBox="0 0 370.000000 255.000000"
 preserveAspectRatio="xMidYMid meet">

<g transform="translate(0.000000,255.000000) scale(0.100000,-0.100000)"
fill="#000000" stroke="none">
<path d="M1653 2358 c-13 -6 -23 -15 -23 -20 0 -5 8 -4 19 1 10 6 21 7 25 4 3
-3 6 1 6 10 0 10 -1 17 -2 16 -2 0 -13 -5 -25 -11z"/>
<path d="M1790 2350 c0 -5 5 -10 10 -10 6 0 10 5 10 10 0 6 -4 10 -10 10 -5 0
-10 -4 -10 -10z"/>
<path d="M1825 2340 c4 -6 11 -8 16 -5 14 9 11 15 -7 15 -8 0 -12 -5 -9 -10z"/>
<path d="M1580 2181 c-14 -18 -17 -27 -8 -30 7 -2 14 1 16 8 2 6 8 9 13 6 5
-4 6 1 3 9 -4 11 0 14 15 11 13 -2 18 1 15 9 -8 20 -31 15 -54 -13z"/>
<path d="M1835 2200 c-3 -5 -1 -18 5 -27 11 -17 11 -17 6 0 -3 10 0 17 9 17 7
0 16 -8 19 -18 7 -20 46 -48 46 -32 0 5 -3 10 -7 10 -5 0 -16 14 -25 30 -17
30 -41 39 -53 20z"/>
<path d="M1709 2043 c-13 -16 -12 -17 4 -4 9 7 17 15 17 17 0 8 -8 3 -21 -13z"/>
<path d="M1664 1998 l-19 -23 23 19 c21 18 27 26 19 26 -2 0 -12 -10 -23 -22z"/>
<path d="M1854 1948 l-19 -23 23 19 c21 18 27 26 19 26 -2 0 -12 -10 -23 -22z"/>
<path d="M1860 1880 c-9 -6 -10 -10 -3 -10 6 0 15 5 18 10 8 12 4 12 -15 0z"/>
<path d="M1902 1614 l-2 -31 -115 -1 c-96 0 -117 3 -125 17 -8 12 -9 7 -8 -21
2 -39 14 -48 36 -26 7 7 12 8 12 2 0 -6 -5 -15 -12 -22 -9 -9 -4 -9 23 -2 18
6 35 10 36 10 1 0 9 -7 17 -16 9 -9 28 -17 41 -19 20 -2 25 2 25 19 0 11 5 28
11 36 8 11 9 7 5 -17 -7 -41 2 -42 37 -1 22 24 27 39 24 67 -3 34 -4 35 -5 5z"/>
<path d="M1467 1563 c-4 -3 -6 -27 -6 -52 1 -25 4 -36 6 -23 2 12 9 22 14 22
5 0 8 14 7 30 -2 30 -8 36 -21 23z"/>
<path d="M1690 1505 c-7 -9 -10 -18 -6 -22 3 -3 6 -1 6 6 0 7 4 10 9 6 5 -3
12 -1 16 5 9 14 21 12 40 -6 9 -9 19 -13 23 -9 10 10 -28 35 -54 35 -12 0 -27
-7 -34 -15z"/>
<path d="M1651 1470 c0 -14 6 -36 15 -48 13 -19 23 -22 55 -19 22 2 40 6 42 8
22 39 25 49 17 54 -6 3 -10 0 -10 -8 0 -8 -6 -20 -14 -26 -12 -10 -13 -9 -9 7
3 15 -2 21 -22 24 -21 4 -25 2 -20 -11 11 -27 10 -33 -3 -38 -7 -3 -12 -1 -11
4 1 4 1 15 0 23 -1 13 -2 13 -11 0 -10 -16 -13 -11 -23 35 -4 16 -5 15 -6 -5z"/>
<path d="M1720 1482 c0 -5 7 -9 15 -9 8 0 15 4 15 9 0 4 -7 8 -15 8 -8 0 -15
-4 -15 -8z"/>
<path d="M1795 1430 c-3 -5 -2 -10 4 -10 5 0 13 5 16 10 3 6 2 10 -4 10 -5 0
-13 -4 -16 -10z"/>
<path d="M1703 1383 c-16 -6 -17 -29 -3 -38 13 -8 40 13 40 31 0 14 -14 17
-37 7z"/>
<path d="M1777 1377 c-6 -16 30 -20 39 -4 4 7 4 9 -1 5 -4 -4 -14 -3 -20 2 -9
7 -14 7 -18 -3z"/>
<path d="M1630 1371 c-12 -7 -14 -29 -12 -116 3 -103 4 -106 25 -103 21 3 22
8 23 116 1 114 -2 123 -36 103z"/>
<path d="M1900 1365 c-8 -9 -21 -13 -32 -9 -10 3 -25 1 -32 -6 -8 -6 -18 -10
-22 -9 -5 1 -22 -1 -37 -6 -20 -5 -25 -11 -18 -18 6 -6 11 -42 11 -79 0 -37 3
-68 6 -68 3 0 14 5 25 10 15 9 19 22 19 68 0 54 12 94 22 76 3 -5 5 -35 4 -66
-2 -61 0 -65 27 -45 11 8 17 30 19 71 4 78 28 91 28 16 0 -37 4 -50 13 -47 8
2 12 24 12 63 0 46 -4 59 -16 62 -9 1 -22 -4 -29 -13z"/>
<path d="M1565 1353 c-34 -8 -65 -44 -65 -75 0 -21 11 -39 38 -63 31 -29 35
-38 26 -52 -7 -11 -22 -17 -38 -16 -17 1 -26 -3 -26 -13 0 -9 11 -14 34 -14
25 0 40 7 55 26 31 39 26 62 -20 105 -45 42 -46 63 -4 79 14 5 25 14 25 20 0
5 -1 9 -2 9 -2 -1 -12 -3 -23 -6z"/>
<path d="M1703 1318 c-22 -11 -31 -28 -15 -28 4 0 6 -18 4 -40 -6 -58 4 -90
28 -90 18 0 20 7 20 85 0 47 -3 85 -7 84 -5 0 -18 -5 -30 -11z"/>
<path d="M2250 1316 c0 -8 4 -17 9 -20 5 -4 7 3 4 14 -6 23 -13 26 -13 6z"/>
<path d="M2293 1297 c2 -7 14 -13 26 -13 16 -1 19 2 12 9 -15 15 -43 18 -38 4z"/>
<path d="M1945 1240 c-31 -32 -124 -71 -225 -95 l-65 -15 62 4 c35 2 82 13
105 24 24 11 57 25 74 31 32 13 106 81 88 81 -6 0 -23 -13 -39 -30z"/>
<path d="M2300 1230 c-12 -7 -12 -12 -3 -21 9 -9 16 -9 27 1 26 21 5 39 -24
20z"/>
<path d="M2239 1223 c-10 -2 -15 -11 -13 -21 2 -9 5 -51 7 -92 3 -61 6 -76 20
-78 15 -3 17 8 17 97 0 56 -3 100 -7 100 -5 -1 -15 -3 -24 -6z"/>
<path d="M2400 1201 l-45 -16 3 -62 c3 -55 6 -63 22 -63 17 0 20 7 20 49 0 27
3 56 6 65 13 33 24 14 24 -40 0 -40 4 -55 13 -52 14 5 23 117 10 128 -4 3 -28
-1 -53 -9z"/>
<path d="M2146 1189 c-34 -27 -33 -59 4 -94 17 -16 30 -36 30 -46 0 -19 -23
-31 -45 -23 -8 4 -15 1 -15 -5 0 -19 59 -12 80 9 33 33 26 62 -23 93 -34 22
-34 60 1 65 12 2 22 8 22 13 0 16 -26 10 -54 -12z"/>
<path d="M2310 1177 c-23 -18 -15 -139 8 -135 13 3 18 17 20 67 3 69 -4 87
-28 68z"/>
<path d="M1825 1139 c-4 -6 -5 -12 -2 -15 2 -3 7 2 10 11 7 17 1 20 -8 4z"/>
<path d="M2527 1131 c-4 -17 -3 -21 5 -13 5 5 8 16 6 23 -3 8 -7 3 -11 -10z"/>
<path d="M1191 1091 c-8 -5 5 -7 35 -4 68 6 77 11 24 12 -25 0 -51 -3 -59 -8z"/>
<path d="M1453 1020 c1 -39 -1 -70 -5 -70 -11 0 -9 -72 2 -90 8 -12 10 -12 10
-1 0 8 7 11 18 9 15 -4 17 1 15 36 -3 51 11 70 40 55 16 -9 23 -8 34 7 7 10
13 29 13 43 l0 25 -29 -28 c-29 -28 -30 -28 -25 -5 5 22 4 23 -9 7 -21 -26
-30 -22 -12 5 17 26 11 39 -12 30 -11 -4 -14 -2 -11 8 4 13 -13 39 -26 39 -3
0 -4 -32 -3 -70z m4 -137 c-3 -10 -5 -4 -5 12 0 17 2 24 5 18 2 -7 2 -21 0
-30z"/>
<path d="M1732 1079 c2 -7 11 -13 19 -15 7 -1 19 -3 24 -4 6 -1 26 -1 45 0
l35 2 -40 9 c-22 5 -51 11 -63 14 -16 4 -23 2 -20 -6z"/>
<path d="M1860 1070 c0 -13 11 -13 30 0 12 8 11 10 -7 10 -13 0 -23 -4 -23
-10z"/>
<path d="M2002 1055 c0 -16 2 -22 5 -12 2 9 2 23 0 30 -3 6 -5 -1 -5 -18z"/>
<path d="M1118 1063 c-25 -3 -42 -11 -49 -24 -15 -29 0 -39 18 -11 15 21 71
33 58 12 -7 -12 -10 -11 85 -14 80 -3 106 3 74 15 -17 7 -16 8 6 9 23 1 23 2
5 10 -20 9 -127 10 -197 3z"/>
<path d="M2430 1060 c-8 -5 -40 -15 -70 -22 -30 -6 -48 -13 -38 -15 20 -5 126
25 133 38 8 12 -6 11 -25 -1z"/>
<path d="M1359 1047 c6 -8 8 -16 5 -19 -2 -3 2 -8 10 -11 22 -9 29 9 10 27
-19 20 -41 22 -25 3z"/>
<path d="M1739 1026 c-11 -23 -13 -24 -33 -11 -20 13 -24 12 -49 -11 -26 -23
-28 -30 -23 -80 3 -30 1 -56 -5 -60 -6 -4 -6 -11 2 -20 6 -8 9 -14 5 -14 -4 0
1 -12 11 -26 9 -15 18 -35 20 -45 3 -18 2 -18 -15 -1 -11 9 -18 19 -16 22 1 3
-6 7 -17 7 -12 1 -19 -3 -16 -10 2 -7 9 -12 14 -12 6 0 15 -3 19 -7 4 -5 2 -8
-4 -8 -6 0 -9 -7 -5 -16 4 -11 8 -12 13 -4 5 8 9 7 13 -4 11 -28 28 -17 27 17
-1 49 5 76 18 87 9 7 9 7 2 -2 -6 -7 -5 -18 2 -32 8 -14 8 -21 0 -24 -6 -2 -8
-10 -5 -18 4 -10 13 -6 35 18 37 39 51 66 45 83 -4 9 1 11 14 8 20 -6 28 -53
9 -53 -5 0 -10 -9 -10 -20 0 -11 5 -20 11 -20 6 0 8 7 5 16 -4 11 -2 15 8 11
10 -4 12 1 9 16 -4 20 -3 20 11 -3 8 -14 15 -19 16 -11 0 8 2 12 5 9 7 -7 -16
-58 -24 -54 -3 2 -15 0 -26 -5 -16 -7 -13 -8 13 -6 19 2 32 -1 32 -8 0 -6 6
-20 14 -31 14 -19 15 -19 35 3 14 14 20 34 20 55 -2 30 -2 31 -6 6 -2 -16 -9
-28 -15 -28 -5 0 -8 6 -5 14 3 8 -1 20 -8 26 -18 15 -10 30 16 30 16 0 19 7
18 43 0 46 -13 134 -20 142 -3 2 -21 6 -42 8 -37 4 -51 11 -53 28 -3 23 -6 23
-20 -1 -11 -19 -14 -21 -12 -6 4 29 -20 31 -33 2z m8 -221 c-18 -17 -37 -20
-37 -4 0 5 4 8 9 5 5 -3 14 1 21 9 7 9 15 13 18 11 2 -3 -3 -12 -11 -21z m123
-51 c0 -8 -4 -12 -10 -9 -5 3 -10 10 -10 16 0 5 5 9 10 9 6 0 10 -7 10 -16z
m20 -39 c0 -8 -4 -15 -10 -15 -5 0 -10 7 -10 15 0 8 5 15 10 15 6 0 10 -7 10
-15z"/>
<path d="M1845 1040 c-4 -6 -10 -8 -15 -5 -5 3 -11 1 -15 -5 -7 -12 11 -12 39
-1 13 5 16 10 9 14 -7 4 -14 3 -18 -3z"/>
<path d="M1597 991 c-21 -36 -21 -40 0 -37 16 3 31 27 32 54 2 21 -14 13 -32
-17z"/>
<path d="M2530 979 c0 -5 5 -7 10 -4 6 3 10 8 10 11 0 2 -4 4 -10 4 -5 0 -10
-5 -10 -11z"/>
<path d="M2100 945 c0 -14 4 -25 9 -25 4 0 6 11 3 25 -2 14 -6 25 -8 25 -2 0
-4 -11 -4 -25z"/>
<path d="M1223 930 c1 -11 5 -20 9 -20 4 0 8 9 8 20 0 11 -4 20 -9 20 -6 0 -9
-9 -8 -20z"/>
<path d="M2367 915 c-4 -8 -2 -17 2 -20 5 -2 11 4 14 15 6 23 -8 27 -16 5z"/>
<path d="M2530 909 c0 -5 5 -7 10 -4 6 3 10 8 10 11 0 2 -4 4 -10 4 -5 0 -10
-5 -10 -11z"/>
<path d="M1498 835 c-7 -8 3 -55 12 -55 4 0 2 -16 -4 -35 -10 -32 -35 -45 -28
-14 14 59 15 72 1 67 -8 -2 -17 -22 -20 -44 -3 -21 -7 -32 -8 -24 -2 11 -5 9
-11 -5 -12 -27 -12 -37 -1 -30 21 12 30 -29 13 -60 -9 -16 -17 -39 -19 -50 -3
-18 -1 -17 20 6 34 35 49 67 41 82 -6 9 -4 9 8 -1 13 -10 17 -10 22 3 3 8 1
15 -3 15 -13 0 -8 49 6 54 7 3 10 -4 7 -20 -2 -13 0 -24 5 -24 5 0 8 8 6 18
-1 9 2 23 8 30 5 6 6 12 2 12 -4 0 -2 6 4 14 9 10 7 13 -6 13 -35 0 -44 3 -38
13 7 11 -8 43 -17 35z m49 -70 c0 -8 -4 -12 -9 -9 -5 3 -6 10 -3 15 9 13 12
11 12 -6z"/>
<path d="M1768 755 c-3 -14 -1 -25 3 -25 5 0 9 11 9 25 0 14 -2 25 -4 25 -2 0
-6 -11 -8 -25z"/>
<path d="M1197 725 c-7 -16 8 -29 23 -20 15 9 12 35 -4 35 -8 0 -16 -7 -19
-15z"/>
<path d="M1340 730 c0 -5 -6 -10 -14 -10 -7 0 -27 -7 -42 -15 -28 -14 -29 -17
-26 -77 4 -69 6 -73 21 -63 6 3 11 33 11 66 0 33 4 59 10 59 6 0 11 -11 11
-25 1 -14 3 -29 4 -35 1 -5 4 -18 5 -27 2 -10 6 11 9 46 7 76 30 97 32 29 2
-32 3 -35 6 -14 6 35 -4 76 -17 76 -6 0 -10 -4 -10 -10z"/>
<path d="M1151 716 c-7 -8 -8 -17 -3 -20 5 -3 10 -40 11 -83 2 -72 12 -106 27
-90 9 8 -6 207 -16 207 -4 0 -13 -6 -19 -14z"/>
<path d="M1096 678 c-20 -29 -20 -72 0 -88 35 -30 40 -80 8 -80 -8 0 -14 -4
-14 -10 0 -16 26 -11 43 8 25 28 21 74 -8 102 -29 27 -31 46 -8 72 9 10 11 18
5 18 -6 0 -18 -10 -26 -22z"/>
<path d="M1566 685 c-9 -26 -7 -32 5 -12 6 10 9 21 6 23 -2 3 -7 -2 -11 -11z"/>
<path d="M1212 678 c-15 -19 -3 -129 16 -136 13 -4 16 82 3 127 -5 20 -8 21
-19 9z"/>
<path d="M1848 660 c-26 -24 -22 -35 4 -10 12 11 20 22 17 24 -2 2 -12 -4 -21
-14z"/>
<path d="M1916 665 c-9 -26 -7 -32 5 -12 6 10 9 21 6 23 -2 3 -7 -2 -11 -11z"/>
<path d="M1710 660 c0 -6 7 -10 15 -10 8 0 15 2 15 4 0 2 -7 6 -15 10 -8 3
-15 1 -15 -4z"/>
<path d="M1528 637 c-20 -16 -71 -97 -65 -104 7 -6 57 69 57 85 0 10 8 12 28
8 15 -4 23 -3 17 1 -5 5 -13 12 -16 16 -3 4 -13 1 -21 -6z"/>
<path d="M1847 592 c-26 -26 -47 -50 -47 -53 0 -7 68 58 89 84 25 32 6 17 -42
-31z"/>
<path d="M1370 608 c-12 -22 -12 -22 6 -6 10 10 15 20 12 24 -4 3 -12 -5 -18
-18z"/>
<path d="M1796 594 c-23 -23 -20 -30 4 -9 11 10 20 20 20 22 0 7 -9 2 -24 -13z"/>
<path d="M1902 579 c-13 -16 -17 -27 -10 -24 13 5 42 45 36 50 -2 1 -13 -11
-26 -26z"/>
<path d="M1630 590 c0 -5 5 -10 10 -10 6 0 10 5 10 10 0 6 -4 10 -10 10 -5 0
-10 -4 -10 -10z"/>
<path d="M1310 549 c-24 -16 -37 -29 -30 -29 8 0 31 14 50 30 44 37 38 37 -20
-1z"/>
<path d="M1528 553 c7 -3 16 -2 19 1 4 3 -2 6 -13 5 -11 0 -14 -3 -6 -6z"/>
<path d="M1510 526 c14 -37 13 -43 -4 -20 -15 19 -15 19 -31 -1 -11 -15 -14
-33 -11 -70 5 -45 4 -48 -9 -31 -8 11 -15 14 -15 8 0 -7 9 -21 20 -32 11 -11
20 -30 21 -42 0 -13 3 -32 5 -43 3 -11 7 -39 9 -62 2 -23 6 -47 9 -52 3 -5 1
-11 -6 -13 -16 -6 -1 -27 27 -38 15 -6 41 -4 74 5 62 16 61 16 86 -1 11 -8 34
-14 53 -14 30 0 35 4 53 48 22 52 35 78 70 137 14 24 17 35 8 28 -9 -7 -20 -9
-24 -5 -5 4 -5 1 -1 -6 5 -8 0 -22 -12 -35 -11 -12 -22 -29 -26 -37 -3 -8 -4
0 -3 18 4 40 -8 30 -21 -18 l-10 -35 -1 35 c-1 19 -5 30 -9 24 -4 -5 -24 -10
-45 -9 -26 1 -42 -5 -55 -19 l-17 -21 24 20 24 20 -12 -23 c-7 -12 -9 -32 -6
-42 5 -17 2 -20 -22 -20 -22 0 -25 2 -13 10 13 8 12 10 -2 10 -10 0 -18 7 -18
16 0 8 -4 12 -10 9 -6 -4 -10 8 -10 29 0 22 5 36 13 36 6 1 -1 7 -18 14 -16 7
-34 11 -38 8 -5 -2 -4 6 3 18 7 12 8 20 2 16 -5 -3 -10 4 -10 17 1 48 -7 74
-20 73 -8 -1 -19 7 -26 17 -9 15 -8 20 7 28 21 12 22 42 2 59 -14 11 -14 10
-5 -14z m32 -131 c3 -13 1 -22 -3 -19 -9 5 -13 44 -5 44 2 0 6 -11 8 -25z"/>
<path d="M1213 513 c-13 -2 -23 -9 -23 -14 0 -10 32 -4 60 12 13 7 13 8 0 7
-8 0 -25 -3 -37 -5z"/>
<path d="M1890 484 c8 -10 15 -20 16 -22 1 -2 5 1 8 7 4 5 -4 15 -16 22 -22
12 -22 11 -8 -7z"/>
<path d="M1835 470 c-18 -8 -17 -9 8 -9 16 -1 26 3 22 9 -3 6 -7 10 -8 9 -1 0
-11 -4 -22 -9z"/>
<path d="M1269 443 c6 -13 19 -23 28 -23 9 0 14 1 12 3 -2 1 -15 11 -28 22
l-24 20 12 -22z"/>
<path d="M1645 449 c-4 -6 -5 -12 -2 -15 2 -3 7 2 10 11 7 17 1 20 -8 4z"/>
<path d="M1851 430 c-13 -11 -19 -20 -13 -20 10 0 42 27 42 36 0 7 -4 5 -29
-16z"/>
<path d="M1900 429 c0 -5 5 -7 10 -4 6 3 10 8 10 11 0 2 -4 4 -10 4 -5 0 -10
-5 -10 -11z"/>
<path d="M1459 332 c5 -34 6 -35 9 -8 2 16 0 32 -5 37 -5 5 -7 -7 -4 -29z"/>
<path d="M1654 281 c3 -5 -2 -15 -11 -22 -14 -12 -16 -12 -11 2 4 9 1 16 -7
16 -11 0 -11 -5 -4 -19 10 -19 12 -19 30 -2 16 14 18 34 3 34 -3 0 -3 -4 0 -9z"/>
<path d="M1868 228 c-29 -29 -34 -38 -20 -39 11 -1 8 -4 -8 -8 -14 -4 -26 -14
-28 -22 -2 -11 13 -18 60 -26 66 -11 105 -2 91 20 -4 7 -8 26 -9 42 -2 65 -3
68 -24 62 -10 -3 -20 -2 -22 2 -2 4 -20 -10 -40 -31z"/>
<path d="M1120 239 c0 -5 -4 -7 -10 -4 -5 3 -10 1 -10 -4 0 -6 11 -11 25 -11
16 0 25 6 25 15 0 8 -7 15 -15 15 -8 0 -15 -5 -15 -11z"/>
<path d="M1184 222 c7 -12 80 -14 108 -3 18 8 7 10 -45 10 -38 1 -66 -3 -63
-7z"/>
<path d="M2190 194 c-24 -8 -52 -11 -62 -8 -10 3 -18 1 -18 -4 0 -18 33 -23
87 -12 29 6 58 8 65 4 8 -5 9 -2 5 10 -4 10 -7 20 -7 22 0 7 -22 3 -70 -12z"/>
<path d="M2366 194 c-3 -9 -6 -17 -6 -18 0 -1 15 -2 33 -2 17 0 46 -3 62 -7
21 -5 36 -3 50 8 19 15 19 15 -5 10 -14 -3 -45 1 -69 10 -54 19 -57 19 -65 -1z"/>
<path d="M1173 162 c-5 -10 -17 -12 -52 -7 -44 6 -45 6 -29 -11 31 -31 259
-32 271 -1 3 9 -17 11 -77 10 -51 -1 -72 1 -56 6 23 7 22 8 -14 12 -27 4 -40
1 -43 -9z"/>
</g>
</svg>
