<?xml version="1.0" standalone="no"?>
<!DOCTYPE svg PUBLIC "-//W3C//DTD SVG 20010904//EN"
 "http://www.w3.org/TR/2001/REC-SVG-20010904/DTD/svg10.dtd">
<svg version="1.0" xmlns="http://www.w3.org/2000/svg"
 width="370.000000pt" height="255.000000pt" viewBox="0 0 370.000000 255.000000"
 preserveAspectRatio="xMidYMid meet">

<g transform="translate(0.000000,255.000000) scale(0.100000,-0.100000)"
fill="#000000" stroke="none">
<path d="M1671 2351 c-10 -7 -7 -9 12 -8 15 1 27 5 27 10 0 10 -22 9 -39 -2z"/>
<path d="M1623 2203 c-30 -6 -29 -14 6 -47 25 -24 32 -26 51 -16 20 11 21 10
9 -12 l-12 -23 23 20 c26 23 20 8 -18 -43 -18 -25 -21 -37 -13 -45 21 -21 12
-96 -20 -163 -28 -57 -58 -100 -43 -60 4 10 -1 18 -11 22 -12 5 -13 9 -4 14
16 10 4 40 -16 40 -8 0 -15 -4 -15 -10 0 -5 6 -10 13 -10 8 0 9 -3 1 -8 -6 -4
-14 -14 -17 -22 -4 -10 -6 -8 -6 7 -1 12 -6 25 -12 29 -7 4 -9 0 -5 -12 3 -11
1 -26 -4 -34 -7 -11 -9 -3 -6 27 4 38 68 150 96 168 5 3 15 16 21 28 22 42
-52 -48 -112 -138 -61 -91 -74 -86 -16 6 16 27 28 52 24 55 -3 3 -17 -15 -32
-40 -15 -25 -29 -46 -31 -46 -5 0 7 32 16 45 25 33 69 117 57 107 -12 -10 -16
-10 -21 0 -3 7 -3 2 0 -11 4 -14 2 -21 -4 -17 -5 3 -13 -1 -16 -10 -4 -9 -9
-15 -11 -12 -3 3 2 22 12 44 18 42 24 64 17 64 -9 0 -44 -94 -57 -153 -15 -66
-14 -140 1 -332 5 -66 9 -135 9 -154 0 -42 37 -79 59 -60 20 16 17 36 -7 71
-12 16 -18 32 -15 35 6 6 75 -66 76 -79 0 -5 5 -8 10 -8 6 0 5 8 -2 20 -7 10
-8 23 -4 27 5 4 11 2 13 -5 7 -19 35 -44 41 -37 4 3 2 9 -3 13 -6 4 -11 18
-13 32 -1 13 -6 27 -10 30 -11 8 -14 50 -4 50 15 0 52 -82 52 -114 0 -52 78
-105 115 -78 17 12 39 61 31 69 -4 4 -9 -3 -13 -15 -3 -12 -9 -22 -14 -22 -5
0 -9 -8 -10 -17 0 -12 -2 -13 -6 -5 -3 7 1 20 9 29 10 12 10 17 1 20 -7 3 -15
4 -19 3 -3 -1 -12 7 -20 17 -19 25 -18 0 1 -37 9 -17 11 -30 5 -30 -5 0 -10 5
-10 11 0 5 -5 7 -10 4 -17 -11 -40 15 -40 44 0 16 10 37 24 50 14 13 22 29 20
36 -3 7 -1 16 5 20 7 3 11 -2 11 -14 0 -14 6 -21 19 -21 10 0 30 -11 44 -24
l26 -24 16 34 c15 32 35 53 35 37 0 -4 -11 -26 -23 -48 -41 -71 -40 -73 5 -65
46 9 82 39 84 72 1 13 4 31 8 41 15 41 15 48 0 54 -9 3 -11 9 -6 12 5 3 11 34
14 69 2 34 1 57 -4 50 -5 -8 -8 -9 -8 -2 0 6 20 49 44 95 37 71 64 149 52 149
-2 0 -13 -26 -25 -59 -12 -32 -28 -64 -36 -71 -20 -17 -19 -10 11 63 34 84 32
119 -10 202 -20 39 -36 66 -36 60 0 -5 -5 -2 -11 8 -5 9 -7 23 -3 30 4 6 4 9
-1 5 -4 -4 -17 -1 -29 7 -15 12 -50 15 -146 14 -69 -1 -135 -4 -147 -6z m324
-96 c4 -52 33 -135 33 -94 0 36 18 14 24 -29 4 -35 1 -57 -14 -92 -11 -25 -22
-43 -24 -41 -2 2 -1 26 4 52 6 39 4 52 -11 71 -10 13 -17 25 -15 27 2 2 -2 37
-9 77 -8 52 -9 70 -1 62 6 -6 12 -21 13 -33z m-12 -167 c3 -5 1 -10 -4 -10 -6
0 -11 5 -11 10 0 6 2 10 4 10 3 0 8 -4 11 -10z m-415 -146 c0 -8 -4 -12 -10
-9 -5 3 -10 10 -10 16 0 5 5 9 10 9 6 0 10 -7 10 -16z m391 -37 l-23 -22 17
28 c10 15 20 25 23 22 3 -3 -5 -16 -17 -28z"/>
<path d="M1560 2165 c-7 -9 -8 -15 -2 -15 5 0 12 7 16 15 3 8 4 15 2 15 -2 0
-9 -7 -16 -15z"/>
<path d="M1980 2147 c0 -14 43 -87 51 -87 5 0 -3 19 -17 43 -31 48 -34 53 -34
44z"/>
<path d="M2348 2073 c6 -2 18 -2 25 0 6 3 1 5 -13 5 -14 0 -19 -2 -12 -5z"/>
<path d="M1585 2050 c-10 -11 -14 -20 -8 -20 5 0 18 9 28 20 10 11 14 20 8 20
-5 0 -18 -9 -28 -20z"/>
<path d="M2315 2040 c4 -6 17 -9 30 -7 40 5 41 17 1 17 -23 0 -35 -4 -31 -10z"/>
<path d="M2266 2025 c-3 -8 -1 -15 4 -15 6 0 10 7 10 15 0 8 -2 15 -4 15 -2 0
-6 -7 -10 -15z"/>
<path d="M2401 2024 c0 -11 3 -14 6 -6 3 7 2 16 -1 19 -3 4 -6 -2 -5 -13z"/>
<path d="M1640 1969 c-11 -8 -12 -12 -3 -15 7 -3 9 -12 6 -20 -3 -8 0 -14 5
-14 14 0 26 40 15 51 -4 4 -15 4 -23 -2z"/>
<path d="M2186 1895 c-3 -10 -2 -14 5 -9 6 3 20 -4 31 -16 14 -14 28 -20 44
-17 29 5 30 -6 5 -42 -13 -18 -17 -32 -10 -42 5 -7 8 -27 8 -44 -1 -17 -3 -22
-6 -12 -6 22 -22 22 -30 1 -4 -10 0 -22 9 -28 15 -11 13 -40 -3 -31 -5 4 -6 0
-3 -8 2 -7 -3 -23 -13 -33 -10 -11 -14 -14 -9 -7 6 9 4 13 -7 13 -10 0 -13 6
-10 20 4 13 0 20 -10 20 -8 0 -14 -8 -13 -17 0 -10 -4 -17 -11 -16 -8 2 -10
-4 -6 -15 6 -15 5 -15 -10 -3 -16 13 -15 17 12 67 16 30 27 54 25 54 -3 0 -23
-28 -45 -62 -23 -35 -38 -52 -34 -38 4 14 16 37 26 52 25 35 24 50 -1 19 -24
-28 -26 -20 -4 14 10 15 14 34 10 49 -3 14 -2 28 4 31 5 3 10 14 10 23 -1 11
-6 8 -16 -11 -8 -15 -12 -37 -9 -48 4 -13 2 -19 -6 -17 -13 3 -28 -38 -35 -99
-3 -28 0 -43 7 -43 8 0 8 -4 -1 -15 -9 -11 -11 -33 -6 -78 12 -99 17 -120 29
-108 18 18 64 13 72 -6 6 -17 7 -17 19 0 11 14 30 17 126 17 111 0 113 0 95
-19 -11 -13 -34 -21 -64 -24 l-46 -3 51 -2 c35 -1 55 3 64 13 16 19 33 9 25
-16 -4 -13 -2 -19 9 -19 9 0 16 -4 16 -10 0 -5 -11 -10 -25 -10 -14 0 -29 -8
-35 -21 -13 -24 -13 -24 17 -33 18 -6 30 0 53 26 17 18 28 38 26 45 -3 7 -1
15 4 18 6 4 10 0 10 -9 0 -8 6 -16 13 -19 8 -3 -1 -18 -24 -43 -53 -58 -35
-100 24 -54 18 15 26 17 30 8 7 -23 1 176 -7 202 -6 19 -5 21 3 10 8 -12 11
-6 12 25 0 22 1 68 3 102 2 53 0 59 -11 43 -7 -10 -13 -40 -12 -67 0 -26 -3
-69 -6 -95 -7 -44 -9 -48 -35 -48 -27 0 -29 2 -27 40 1 22 5 40 10 40 5 0 7 8
5 18 -3 9 11 47 29 84 18 37 33 75 33 85 0 10 -9 -1 -19 -23 -10 -23 -24 -44
-30 -48 -5 -4 -2 13 9 36 20 46 32 128 19 128 -4 0 -15 14 -23 32 -18 34 -21
51 -6 28 5 -8 10 -10 10 -5 0 6 -13 21 -29 34 -16 13 -27 30 -24 37 3 9 -30
12 -140 13 -124 2 -145 0 -151 -14z m299 -62 c6 -55 18 -83 30 -73 23 19 27
-57 4 -101 -11 -22 -22 -39 -25 -39 -3 0 -2 5 2 11 14 23 14 73 0 93 -14 22
-33 146 -21 134 4 -4 9 -15 10 -25z m-345 -243 c0 -5 -4 -10 -10 -10 -5 0 -10
5 -10 10 0 6 5 10 10 10 6 0 10 -4 10 -10z m330 -24 c0 -2 -8 -10 -17 -17 -16
-13 -17 -12 -4 4 13 16 21 21 21 13z"/>
<path d="M2051 1843 c-9 -26 -11 -57 -7 -83 4 -23 3 -47 -2 -54 -12 -14 -35
-173 -28 -185 3 -5 6 -55 7 -112 1 -57 6 -115 11 -128 5 -16 5 -28 -2 -35 -17
-17 -12 -84 6 -94 20 -11 10 -34 -11 -25 -12 4 -13 0 -7 -17 11 -30 -2 -110
-19 -121 -10 -6 -15 -3 -17 11 -2 11 -25 42 -52 70 -45 47 -70 65 -54 39 5 -8
-3 -10 -25 -7 -38 6 -38 1 -6 -47 15 -20 24 -40 21 -43 -9 -9 -37 20 -57 60
-17 33 -22 36 -43 28 -13 -5 -27 -6 -30 -3 -3 4 -6 -9 -6 -28 0 -36 -18 -79
-21 -49 -1 8 -2 22 -3 30 -2 8 -3 23 -4 34 -2 14 -5 16 -16 7 -7 -6 -21 -9
-29 -5 -11 4 -22 -6 -37 -35 -11 -23 -25 -41 -30 -41 -13 0 -13 6 1 29 14 21
4 69 -13 68 -39 -1 -68 4 -68 13 0 6 11 10 24 10 25 0 51 19 58 42 4 10 8 10
22 -1 14 -12 21 -12 44 -1 15 7 35 12 45 11 12 -2 17 5 17 21 1 20 2 21 11 6
13 -23 65 -24 77 -2 8 14 12 14 30 3 17 -11 25 -11 45 0 14 7 30 10 36 7 7 -5
11 1 11 15 0 21 1 21 18 6 25 -22 35 -21 21 2 -9 13 -9 26 -1 48 9 28 8 30 -9
26 -13 -4 -19 0 -19 11 0 22 -13 20 -27 -3 -10 -16 -18 -18 -47 -11 -34 7 -40
5 -37 -12 2 -13 -27 -9 -31 3 -3 9 -9 9 -25 1 -16 -9 -23 -9 -26 1 -3 6 -6 2
-6 -10 -1 -12 -6 -25 -12 -29 -9 -5 -10 1 -5 20 8 32 1 47 -19 39 -9 -3 -15
-18 -15 -34 0 -30 -9 -36 -26 -19 -15 15 -42 2 -57 -27 l-13 -24 -23 25 c-13
13 -20 29 -16 35 10 17 25 13 25 -6 1 -17 2 -16 11 1 9 14 8 22 -4 33 -14 14
-18 13 -41 -11 -20 -23 -28 -26 -44 -17 -16 8 -21 7 -26 -6 -9 -21 3 -31 14
-13 9 13 10 13 10 0 0 -8 16 -25 35 -38 37 -23 45 -49 20 -59 -20 -7 -26 -1
-28 26 -2 25 -1 25 -31 6 -22 -15 -23 -21 -25 -148 -2 -73 -4 -152 -6 -177
-14 -160 -16 -284 -5 -270 10 12 11 12 5 -5 -4 -11 -10 -29 -13 -40 -5 -18 -4
-19 13 -5 17 14 18 14 7 -7 -7 -12 -12 -38 -12 -57 0 -42 32 -191 55 -256 8
-24 13 -50 11 -57 -3 -7 2 -20 11 -29 13 -13 27 -15 62 -9 83 12 94 12 130 -1
35 -12 87 -9 96 6 2 4 30 1 61 -7 45 -12 62 -12 85 -3 16 7 29 15 30 19 2 23
12 62 25 108 9 30 13 60 10 68 -3 8 -1 17 5 21 6 4 6 11 -2 21 -8 9 -9 17 -3
21 10 8 11 9 13 103 1 49 4 68 12 63 6 -3 16 0 21 7 8 12 9 11 5 -1 -20 -68
-20 -67 -4 -45 14 18 15 17 5 -20 -9 -33 -7 -59 11 -140 27 -122 48 -169 79
-173 12 -2 20 -7 17 -12 -15 -24 260 -40 315 -17 l25 10 -30 7 -30 8 28 1 c24
1 27 5 27 39 0 54 -10 84 -26 78 -8 -3 -14 1 -14 9 0 38 -49 -8 -74 -69 -9
-22 -18 -37 -21 -34 -8 7 41 98 83 153 20 27 31 46 24 42 -22 -14 -13 13 27
81 21 37 41 78 45 92 5 21 3 20 -9 -5 -19 -39 -59 -89 -47 -60 4 11 20 45 36
75 24 46 28 62 23 107 -4 34 -2 53 5 53 6 0 8 13 4 33 -11 59 -19 122 -19 144
1 13 -7 23 -18 26 -24 6 -34 -9 -18 -29 14 -17 15 -16 -34 -33 -27 -9 -89 -12
-217 -9 -98 1 -182 0 -185 -4 -4 -4 -9 -35 -11 -70 -10 -164 -13 -200 -18
-205 -2 -3 -2 -12 1 -21 4 -10 2 -13 -5 -8 -18 11 -35 -43 -28 -86 6 -35 -7
-54 -17 -25 -2 6 -3 1 -1 -13 2 -14 -3 -74 -10 -135 -8 -60 -14 -97 -15 -82
-1 40 -18 67 -36 61 -11 -5 -13 -2 -9 10 9 23 -22 20 -47 -5 -11 -11 -32 -44
-45 -72 -13 -29 -24 -45 -24 -37 1 29 37 95 78 143 30 35 42 57 42 80 0 18 15
58 35 92 45 77 78 145 72 151 -2 2 -19 -25 -36 -61 -18 -36 -36 -65 -42 -65
-13 0 -13 2 31 83 39 72 59 160 39 173 -13 8 -11 42 4 48 9 5 9 7 0 12 -8 3
-10 23 -7 60 4 36 2 54 -5 54 -6 0 -11 5 -11 10 0 6 7 10 15 10 13 0 15 41 15
305 0 271 -2 305 -16 305 -14 0 -14 2 1 16 12 13 14 27 9 62 -4 29 -3 43 3 39
7 -4 10 6 8 26 -1 17 3 35 9 39 8 6 7 8 -1 8 -14 0 -18 36 -5 42 4 2 5 19 2
38 l-5 35 -14 -42z m-165 -579 c8 3 14 -1 14 -9 0 -14 -37 -31 -47 -21 -3 3
-2 18 2 33 6 22 9 24 12 10 3 -11 11 -16 19 -13z m-92 -38 c-10 -8 -21 -12
-23 -10 -3 2 4 11 15 18 10 8 21 12 23 10 3 -2 -4 -11 -15 -18z m-115 -20 c-2
-2 -15 -7 -29 -10 l-25 -7 25 21 c15 14 26 18 28 10 2 -6 2 -13 1 -14z m-162
-48 c-3 -7 -5 -2 -5 12 0 14 2 19 5 13 2 -7 2 -19 0 -25z m33 -67 c0 -5 -7
-14 -15 -21 -12 -10 -15 -10 -15 2 0 8 3 18 7 21 9 10 23 9 23 -2z m-40 -67
c0 -8 -4 -12 -10 -9 -5 3 -10 10 -10 16 0 5 5 9 10 9 6 0 10 -7 10 -16z m519
-192 c12 -123 12 -137 -4 -172 -19 -43 -81 -136 -70 -105 4 11 9 27 10 35 1 8
6 27 10 43 5 18 3 33 -6 44 -10 12 -10 15 -1 9 6 -4 12 -2 12 3 0 6 -4 11 -10
11 -13 0 -13 47 0 55 6 4 10 14 8 23 -1 10 1 22 5 29 8 13 -1 43 -14 43 -5 0
-9 -4 -9 -10 0 -5 -5 -10 -11 -10 -7 0 -5 10 5 25 9 13 16 28 16 32 0 4 -5 1
-10 -7 -7 -11 -9 0 -6 35 3 28 5 51 5 53 1 2 13 2 29 0 l27 -3 14 -133z m526
-14 c4 -29 7 -87 8 -128 2 -70 -1 -79 -35 -135 -60 -96 -93 -144 -97 -139 -2
2 7 18 21 36 14 18 33 48 42 66 18 36 32 127 17 118 -10 -7 -4 61 8 82 10 17
3 52 -10 52 -5 0 -9 -4 -9 -8 0 -4 -14 -23 -30 -42 l-31 -35 31 44 c17 25 28
51 25 58 -2 8 0 11 5 8 6 -3 10 -1 10 4 0 6 -4 11 -10 11 -5 0 -10 14 -10 30
0 27 3 30 29 30 28 0 30 -3 36 -52z m-639 -38 c-14 -17 -26 -29 -26 -25 0 10
44 63 49 59 2 -2 -8 -17 -23 -34z m15 -38 c-5 -10 -18 -25 -28 -33 -12 -10
-11 -5 6 19 24 35 38 43 22 14z m530 -85 l-24 -22 19 27 c10 14 21 24 23 22 3
-3 -6 -15 -18 -27z m-532 -166 c-29 -40 -38 -32 -9 9 12 17 24 29 27 26 3 -2
-5 -18 -18 -35z m41 12 c-1 -5 -15 -24 -32 -43 -32 -36 -29 -25 6 23 20 28 26
32 26 20z m524 -48 c-9 -14 -18 -25 -21 -25 -5 0 5 18 20 38 17 22 18 13 1
-13z m-608 -32 c-10 -10 -19 5 -10 18 6 11 8 11 12 0 2 -7 1 -15 -2 -18z"/>
<path d="M1990 720 c0 -5 5 -10 10 -10 6 0 10 5 10 10 0 6 -4 10 -10 10 -5 0
-10 -4 -10 -10z"/>
<path d="M2525 671 c-3 -5 -1 -12 5 -16 5 -3 10 1 10 9 0 18 -6 21 -15 7z"/>
<path d="M2195 1790 c-16 -17 -16 -20 -3 -15 9 4 19 13 22 21 7 19 2 18 -19
-6z"/>
<path d="M2151 1764 c0 -11 3 -14 6 -6 3 7 2 16 -1 19 -3 4 -6 -2 -5 -13z"/>
<path d="M2199 1753 c-13 -16 -12 -17 4 -4 9 7 17 15 17 17 0 8 -8 3 -21 -13z"/>
<path d="M2015 1731 c-3 -5 -1 -12 5 -16 5 -3 10 1 10 9 0 18 -6 21 -15 7z"/>
<path d="M1721 1469 c-12 -12 -20 -24 -17 -27 4 -3 13 3 20 14 14 18 15 18 33
1 11 -9 24 -17 29 -17 5 0 1 5 -8 11 -10 5 -18 15 -18 20 0 6 10 3 22 -5 32
-23 47 -19 19 4 -30 26 -52 25 -80 -1z"/>
<path d="M1552 1400 c-7 -12 -8 -21 -2 -25 6 -3 10 0 10 9 0 8 5 16 12 18 7 3
8 7 2 11 -5 3 -15 -3 -22 -13z"/>
<path d="M1706 1405 c4 -8 11 -15 16 -15 6 0 5 6 -2 15 -7 8 -14 15 -16 15 -2
0 -1 -7 2 -15z"/>
<path d="M1472 1362 c-2 -35 9 -52 36 -52 7 0 11 4 8 9 -4 5 0 12 6 14 7 3 3
6 -10 6 -14 1 -20 5 -17 12 4 6 13 8 21 5 26 -10 14 13 -13 28 -28 14 -28 14
-31 -22z"/>
<path d="M2233 1363 c9 -2 25 -2 35 0 9 3 1 5 -18 5 -19 0 -27 -2 -17 -5z"/>
<path d="M2102 1310 c0 -19 2 -27 5 -17 2 9 2 25 0 35 -3 9 -5 1 -5 -18z"/>
<path d="M2233 1320 c1 -11 2 -20 4 -20 1 0 7 9 13 20 8 16 8 20 -4 20 -9 0
-14 -8 -13 -20z"/>
<path d="M2350 1329 c0 -5 14 -9 30 -9 39 0 39 15 0 16 -17 1 -30 -3 -30 -7z"/>
<path d="M2190 1302 c0 -21 5 -28 19 -28 18 0 18 2 5 28 -8 15 -17 28 -19 28
-3 0 -5 -13 -5 -28z"/>
<path d="M2269 1313 c-13 -17 -13 -17 6 -3 11 8 22 16 24 17 2 2 0 3 -6 3 -6
0 -17 -8 -24 -17z"/>
<path d="M2324 1311 c20 -22 26 -25 26 -13 0 4 -10 13 -22 21 -23 14 -23 14
-4 -8z"/>
<path d="M1995 1280 c0 -21 3 -36 8 -33 4 2 7 17 7 33 0 16 -3 31 -7 33 -5 3
-8 -12 -8 -33z"/>
<path d="M2293 1262 c-7 -4 -9 -13 -4 -21 10 -16 31 -6 31 15 0 16 -9 18 -27
6z"/>
<path d="M2230 1251 c0 -5 7 -15 17 -22 15 -13 15 -12 4 9 -12 23 -21 28 -21
13z"/>
<path d="M2100 1226 c0 -9 5 -16 10 -16 6 0 10 4 10 9 0 6 -4 13 -10 16 -5 3
-10 -1 -10 -9z"/>
<path d="M2270 1216 c0 -7 40 -14 44 -7 3 4 -6 8 -20 9 -13 1 -24 0 -24 -2z"/>
<path d="M2560 1196 c0 -14 5 -28 10 -31 6 -4 10 7 10 24 0 17 -4 31 -10 31
-5 0 -10 -11 -10 -24z"/>
<path d="M2357 1204 c-4 -4 -7 -29 -7 -56 0 -26 -4 -48 -10 -48 -5 0 -10 11
-10 25 0 14 -4 25 -9 25 -14 0 -26 -22 -23 -42 2 -10 -1 -18 -6 -18 -5 0 -12
8 -16 18 -3 9 -9 22 -12 29 -3 6 4 14 15 18 12 3 21 13 21 20 0 12 -7 11 -37
-2 -21 -9 -49 -16 -62 -17 -13 0 -26 -7 -29 -15 -4 -11 2 -13 25 -8 22 4 32 1
41 -14 13 -20 9 -39 -9 -39 -5 0 -9 9 -9 20 0 27 -28 25 -33 -2 l-4 -23 -8 22
c-7 22 -31 37 -45 28 -4 -3 -11 5 -15 18 l-8 22 -4 -24 c-3 -13 1 -27 7 -31 8
-5 9 -10 1 -14 -6 -4 -10 -21 -9 -39 1 -27 5 -33 22 -32 12 0 33 8 48 18 34
23 119 30 111 9 -4 -10 1 -13 18 -10 16 2 23 9 21 20 -2 11 4 17 15 16 10 0
25 1 33 3 8 2 14 -2 12 -9 -3 -18 27 -27 41 -13 9 9 9 14 -1 20 -9 5 9 13 50
21 70 13 78 20 78 68 0 22 -5 32 -16 32 -8 0 -12 -4 -9 -10 3 -5 0 -10 -7 -10
-32 0 -68 -25 -68 -47 0 -13 -4 -23 -10 -23 -5 0 -10 11 -10 25 0 16 -6 25
-15 25 -10 0 -15 -10 -15 -30 0 -16 -5 -30 -11 -30 -7 0 -10 19 -7 52 3 48 -7
69 -25 52z m170 -54 c1 -11 -2 -20 -5 -20 -4 0 -8 9 -9 20 -1 11 2 20 5 20 4
0 8 -9 9 -20z m-377 -56 c0 -8 -5 -12 -10 -9 -6 4 -8 11 -5 16 9 14 15 11 15
-7z m-10 -46 c0 -6 -7 -5 -15 2 -8 7 -15 17 -15 22 0 6 7 5 15 -2 8 -7 15 -17
15 -22z"/>
<path d="M2105 1190 c-3 -5 -1 -10 4 -10 6 0 11 5 11 10 0 6 -2 10 -4 10 -3 0
-8 -4 -11 -10z"/>
<path d="M1910 1131 c0 -4 9 -16 20 -26 16 -15 23 -16 33 -6 9 10 8 11 -5 6
-12 -5 -18 -2 -18 8 0 8 -7 17 -15 21 -8 3 -15 2 -15 -3z"/>
<path d="M2550 1111 c0 -5 -11 -12 -25 -15 -46 -12 -25 -46 28 -46 19 0 22 6
23 35 0 23 -4 35 -13 35 -7 0 -13 -4 -13 -9z"/>
<path d="M1168 1082 c-32 -8 -58 -18 -58 -24 0 -5 8 -4 19 2 11 5 71 11 133
11 62 1 104 3 93 6 -11 3 -24 9 -29 14 -14 13 -91 9 -158 -9z"/>
<path d="M2477 1033 c-14 -13 -7 -40 15 -59 18 -16 20 -17 15 -2 -7 19 17 43
33 33 5 -3 10 -2 10 4 0 21 -58 40 -73 24z"/>
<path d="M1178 1003 c-3 -10 -6 -50 -7 -88 -1 -80 14 -122 45 -117 18 2 17 1
-3 -17 -21 -18 -21 -19 -5 -35 13 -11 17 -26 14 -51 -3 -22 0 -35 7 -35 7 0 6
-8 -4 -23 -13 -21 -13 -25 1 -45 14 -21 14 -22 -10 -22 -35 0 -34 -27 1 -41
20 -7 24 -12 14 -18 -8 -5 -11 -17 -6 -30 5 -17 3 -20 -12 -16 -10 3 -1 -3 19
-12 l37 -18 -24 -27 c-20 -23 -25 -25 -35 -13 -10 12 -9 15 4 15 20 0 21 14 2
29 -18 15 -40 -11 -33 -40 4 -15 2 -18 -7 -10 -7 6 -16 7 -21 3 -7 -6 -1 21
13 57 3 9 1 12 -6 7 -7 -4 -12 -2 -12 6 -1 9 -5 7 -14 -4 -20 -27 -26 -22 -22
22 2 27 0 40 -8 37 -8 -3 -10 -53 -9 -162 2 -175 -1 -168 71 -180 27 -4 40
-11 35 -16 -6 -6 -26 -6 -51 0 -50 11 -56 -3 -10 -22 48 -20 223 -16 244 5 15
15 10 16 -67 11 -87 -6 -104 7 -21 17 39 4 47 9 47 25 0 17 -9 21 -55 26 l-55
6 58 1 57 2 0 34 c0 21 6 36 15 40 17 6 21 81 5 91 -6 4 -10 -11 -10 -39 0
-25 -4 -47 -9 -50 -12 -8 -41 4 -41 16 0 6 7 8 15 4 24 -9 20 66 -5 89 -15 13
-17 21 -9 31 13 16 8 56 -8 61 -7 3 -10 -4 -6 -19 4 -22 4 -22 -11 -4 -21 26
-20 36 3 36 10 0 21 7 25 15 4 10 -1 15 -16 15 l-21 0 22 24 c20 21 21 27 10
48 l-13 23 -7 -25 c-5 -22 -7 -23 -14 -7 -5 13 -2 23 13 33 17 11 21 24 20 64
-1 27 -4 49 -7 48 -19 -2 -19 4 0 23 33 33 7 89 -42 89 -24 0 -30 -5 -37 -32
-6 -26 -10 -29 -15 -15 -5 12 1 26 18 43 31 30 45 30 80 -1 22 -21 26 -33 23
-60 -2 -19 0 -31 4 -27 5 5 9 60 11 123 l2 114 -81 3 c-71 2 -82 1 -86 -15z
m130 -15 c16 -16 15 -53 -3 -68 -20 -16 -73 -3 -80 20 -14 44 50 81 83 48z
m-28 -163 c7 -9 10 -18 6 -22 -9 -10 -58 16 -51 27 9 15 31 12 45 -5z m-5
-103 c16 -11 17 -39 1 -45 -8 -3 -22 1 -33 10 -17 14 -17 14 1 9 15 -5 17 -2
13 14 -5 21 1 25 18 12z m-25 -112 c0 -5 -2 -10 -4 -10 -3 0 -8 5 -11 10 -3 6
-1 10 4 10 6 0 11 -4 11 -10z m70 -246 c0 -8 -7 -14 -15 -14 -8 0 -15 -6 -15
-12 0 -10 -2 -10 -8 0 -5 8 -16 10 -28 6 -14 -5 -12 0 10 24 23 24 32 29 43
21 7 -6 13 -18 13 -25z m-185 -54 c3 -5 1 -10 -4 -10 -6 0 -11 5 -11 10 0 6 2
10 4 10 3 0 8 -4 11 -10z m1 -66 c-4 -11 -2 -12 14 -4 25 14 30 13 24 -5 -7
-18 -51 -20 -57 -2 -6 17 3 38 15 31 5 -3 7 -12 4 -20z"/>
<path d="M1267 943 c-4 -3 -7 -11 -7 -17 0 -6 5 -5 12 2 6 6 9 14 7 17 -3 3
-9 2 -12 -2z"/>
<path d="M1285 370 c-3 -5 1 -10 9 -10 9 0 16 5 16 10 0 6 -4 10 -9 10 -6 0
-13 -4 -16 -10z"/>
<path d="M1360 926 c0 -47 5 -88 10 -91 6 -4 10 27 10 84 0 54 -4 91 -10 91
-6 0 -10 -35 -10 -84z"/>
<path d="M2105 999 c-4 -6 -5 -12 -2 -15 7 -7 37 7 37 17 0 13 -27 11 -35 -2z"/>
<path d="M2245 1000 c-3 -5 -1 -10 4 -10 6 0 11 5 11 10 0 6 -2 10 -4 10 -3 0
-8 -4 -11 -10z"/>
<path d="M2331 994 c10 -13 10 -17 -2 -25 -11 -7 -11 -9 4 -9 9 0 17 4 17 9 0
18 -12 41 -22 41 -6 0 -5 -7 3 -16z"/>
<path d="M2560 986 c-12 -33 -12 -36 -1 -36 10 0 25 50 17 58 -3 2 -10 -7 -16
-22z"/>
<path d="M1100 993 c0 -5 -1 -76 -3 -159 -2 -126 0 -148 12 -137 12 12 14 48
10 223 0 8 2 30 4 48 2 21 -1 32 -10 32 -7 0 -13 -3 -13 -7z"/>
<path d="M1405 990 c3 -5 8 -10 11 -10 2 0 4 5 4 10 0 6 -5 10 -11 10 -5 0 -7
-4 -4 -10z"/>
<path d="M2142 969 c-12 -19 -11 -19 9 -9 13 7 19 8 15 2 -3 -6 -2 -13 3 -16
8 -6 21 15 21 35 0 17 -35 9 -48 -12z"/>
<path d="M2300 979 c0 -5 5 -7 10 -4 6 3 10 8 10 11 0 2 -4 4 -10 4 -5 0 -10
-5 -10 -11z"/>
<path d="M2210 976 c0 -2 7 -7 16 -10 8 -3 12 -2 9 4 -6 10 -25 14 -25 6z"/>
<path d="M1410 965 c-5 -10 -6 -153 -1 -225 2 -27 4 -31 9 -15 8 23 0 255 -8
240z"/>
<path d="M2110 920 c20 -13 33 -13 25 0 -3 6 -14 10 -23 10 -15 0 -15 -2 -2
-10z"/>
<path d="M2445 910 l-30 -8 33 -1 c17 0 32 4 32 9 0 6 -1 9 -2 9 -2 -1 -16 -5
-33 -9z"/>
<path d="M2490 910 c0 -5 5 -10 10 -10 6 0 10 5 10 10 0 6 -4 10 -10 10 -5 0
-10 -4 -10 -10z"/>
<path d="M1095 657 c-4 -11 -3 -23 4 -30 15 -15 19 -7 11 23 -6 22 -8 23 -15
7z"/>
<path d="M1095 565 c0 -14 3 -25 8 -25 4 0 7 11 7 25 0 14 -3 25 -7 25 -5 0
-8 -11 -8 -25z"/>
<path d="M2571 512 c-7 -16 -9 -40 -6 -53 3 -13 -1 -41 -10 -61 -9 -22 -15
-66 -15 -105 l1 -68 14 38 c15 45 28 137 29 220 1 31 0 57 0 57 -1 0 -7 -13
-13 -28z"/>
<path d="M1410 465 c-7 -87 -6 -127 5 -141 8 -11 10 5 7 63 -4 100 -8 129 -12
78z"/>
<path d="M2540 435 c0 -8 4 -15 10 -15 5 0 7 7 4 15 -4 8 -8 15 -10 15 -2 0
-4 -7 -4 -15z"/>
<path d="M1336 427 c3 -10 9 -15 12 -12 3 3 0 11 -7 18 -10 9 -11 8 -5 -6z"/>
<path d="M1419 289 c0 -2 -2 -15 -3 -29 -1 -14 -6 -35 -10 -47 -4 -14 -3 -23
3 -23 11 0 27 88 17 97 -3 4 -6 4 -7 2z"/>
<path d="M1371 223 c0 -6 -4 -20 -7 -30 -5 -14 -4 -15 5 -7 7 7 11 20 8 30 -3
11 -5 14 -6 7z"/>
<path d="M2540 200 c0 -19 3 -21 12 -12 9 9 9 15 0 24 -9 9 -12 7 -12 -12z"/>
</g>
</svg>
